<svg xmlns="http://www.w3.org/2000/svg" viewBox="0 0 1440 240"><style>.gradient{fill:url(#artdeco-banner-graph-gradient1)}.foreground{opacity:.15}.midground{opacity:.3}.background{opacity:.5}.background circle,.foreground circle,.midground circle{fill:#fff}.background polyline,.foreground polyline,.midground polyline{fill:none;stroke:#fff;stroke-width:.5;stroke-miterlimit:10}.background polygon,.foreground polygon,.midground polygon{fill:none;stroke:#fff;stroke-width:.75;stroke-miterlimit:10}.background line,.foreground line,.midground line{fill:none;stroke:#fff;stroke-miterlimit:10}</style><defs><linearGradient id="artdeco-banner-graph-gradient1" gradientUnits="userSpaceOnUse" x1="18.231" y1="308.142" x2="1421.769" y2="-67.934"><stop offset="0" stop-color="#2196f3"/><stop offset="1" stop-color="#008cc9"/></linearGradient></defs><path class="gradient" d="M0 .1h1440v240H0z"/><g class="foreground"><circle cx="42" cy="32.5" r="3.5"/><circle cx="184.1" cy="41" r="3.5"/><circle cx="229.5" cy="9" r="3.5"/><circle cx="281.5" cy="37.5" r="3.5"/><circle cx="222.5" cy="105.5" r="3.5"/><circle cx="249.5" cy="149.5" r="3.5"/><circle cx="368.8" cy="136.2" r="3.5"/><circle cx="385.5" cy="178.2" r="3.5"/><circle cx="453.5" cy="171.6" r="3.5"/><circle cx="394" cy="71.5" r="3.5"/><circle cx="335" cy="44.5" r="3.5"/><circle cx="453.5" cy="43" r="3.5"/><circle cx="484" cy="94.5" r="3.5"/><circle cx="527.4" cy="148.7" r="3.5"/><circle cx="571" cy="194.7" r="3.5"/><circle cx="624" cy="204.7" r="3.5"/><circle cx="681.2" cy="78.5" r="3.5"/><circle cx="739.5" cy="82" r="3.5"/><circle cx="773" cy="183.1" r="3.5"/><circle cx="816.9" cy="209.7" r="3.5"/><circle cx="803.3" cy="33.5" r="3.5"/><circle cx="634" cy="55" r="3.5"/><circle cx="585.5" cy="11" r="3.5"/><circle cx="947.9" cy="40.3" r="3.5"/><circle cx="994.5" cy="9.9" r="3.5"/><circle cx="1043.5" cy="37" r="3.5"/><circle cx="983.3" cy="108.7" r="3.5"/><circle cx="1008.7" cy="150.5" r="3.5"/><circle cx="1130.5" cy="137" r="3.5"/><circle cx="1095" cy="43.8" r="3.5"/><circle cx="927.3" cy="202.7" r="3.5"/><circle cx="1040" cy="214.7" r="3.5"/><circle cx="1148" cy="179" r="3.5"/><circle cx="1215" cy="169" r="3.5"/><circle cx="1159.5" cy="69.8" r="3.5"/><circle cx="1215" cy="40.5" r="3.5"/><circle cx="1245.5" cy="96" r="3.5"/><circle cx="1289.5" cy="147.4" r="3.5"/><circle cx="1332.4" cy="196.3" r="3.5"/><circle cx="1384.2" cy="204.4" r="3.5"/><circle cx="493.5" cy="221.2" r="3.5"/><path d="M12.5-3.5l29.5 36 69-36m-69 36L184.1 41l11.4-54"/><path d="M229.5 9l52 28.5 53.5 7L281.5-16v53.5l-32 112-27-44 7-96.5-45.4-9m98.5 38.8l-60.1 66.7m147.1 30.7l-120.1 13.3"/><path d="M333.7 43L394 71.5l-26 65-86.5-99m112.5 34L453.5 43 484 94.5zM459 0l-5.5 43M366.2 0L394 71.5l46.8-72.7"/><path d="M394 71.5l59.5 100.1 73.9-22.9-33.9 72.5-108-43L335 44.5m118.5 128.3l-68.5 4.1m68.5-5.3l-84.7-35.4M571 240l53-35.3 22.5 38.1M624 204.7l107.2 23.8L773 182l43.9 26.5V240"/><path d="M681.2 77.2l58.3 4.8L772 183.1 681.2 78.5 624 204.7l-53-10-77.5 26.5m287-110l-41-28m-109-85.7L634 55l-48.5-44 7-18.5M634 55L760-5m9.5-2.5l33.8 41L885.5-5m-82.2 38.5l144.6 6.8L951.4 0l43.1 9.9 49 27.1v-51.5"/><path d="M1032.5-14.5l62.5 58.3-51.5-6.8 87 100-121.8 13.5-25.4-41.8 11.2-98.8"/><path d="M983.3 108.7l60.2-71.7-34.8 113.5M1130.5-5l29 74.8-29 67.2 17.5 42 70.5-10-59-99.2L1249 96"/><path d="M1095 43.8l64.5 26 55.5-29.3 30.5 59m-30.5-59l7.5-45.5m-7.5 174l74.5-21.6-37.3 74.6-104.2-39.5m292-106l-55.8 124.4-51.8-4.6-23.9 43.7m15 .4l60.7-32.5 33.3 39.6"/></g><g class="midground"><circle cx="61.6" cy="173.2" r="6"/><circle cx="180.6" cy="94.5" r="6"/><circle cx="159.2" cy="231.9" r="6"/><circle cx="284" cy="161.6" r="6"/><circle cx="379.5" cy="201.7" r="6"/><circle cx="508.3" cy="168.2" r="6"/><path d="M94.9 240l-33.3-66.8 119-78.7L159.2 232l21.7 8.1m132.7.3L284 161.6l57.5 28.1-18.1 50.3m18.1-50.3l38 14.4-13 35.9m13-35.9l128.8-35.9-84.8 72.2m84.8-72.2l40.1 72.3"/></g><g class="background"><circle cx="922.3" cy="40.3" r="5"/><circle cx="1033" cy="108.7" r="5"/><circle cx="1095" cy="60" r="5"/><circle cx="1186.5" cy="1.4" r="5"/><circle cx="1149.5" cy="96" r="5"/><circle cx="1172" cy="154.5" r="5"/><circle cx="1240.5" cy="145.5" r="5"/><circle cx="1308.2" cy="137" r="5"/><circle cx="1303.2" cy="59" r="5"/><circle cx="1363.7" cy="43.5" r="5"/><circle cx="1414" cy=".4" r="5"/><circle cx="1425.5" cy="114" r="5"/><circle cx="1384.2" cy="160.5" r="5"/><circle cx="1289.5" cy="226" r="5"/><circle cx="1380.2" cy="217" r="3"/><circle cx="1425.5" cy="199.3" r="3"/><circle cx="1420.5" cy="74" r="3"/><circle cx="685.5" cy="211.7" r="3"/><circle cx="490.5" cy="237" r="3"/><circle cx="397" cy="186.1" r="3"/><circle cx="341.5" cy="189.7" r="3"/><circle cx="1021.7" cy="179" r="5"/><circle cx="862" cy="204.7" r="5"/><circle cx="816.9" cy="153.7" r="5"/><circle cx="779.5" cy="113.2" r="5"/><circle cx="717" cy="181.1" r="5"/><circle cx="414.5" cy="225" r="5"/><circle cx="289" cy="240.4" r="5"/><circle cx="262.5" cy="89.5" r="5"/><circle cx="206" cy="32.5" r="5"/><circle cx="200" cy="221.5" r="5"/><circle cx="101.5" cy="199.7" r="5"/><circle cx="14" cy="209.7" r="5"/><circle cx="29.5" cy="100.5" r="5"/><circle cx="666" cy="194.7" r="5"/><circle cx="734.5" cy="214.7" r="5"/><path d="M1440 64l-131.8 73m55.5-93.5l-55.5 93.5m-5-78l5 78m0 0l-18.7 89m18.7-89l-116.5 73.3m116.5-73.3L1173 155.5M1303.2 59l-111.5 151.3m192.5-49.8L1269 240.2m171-79.7h-55.8m-4 56.5l4-56.5m41.3 38.8l-45.3 17.7m45.3-16.3l-19.7 39.1m19.7-40.5l14.3 6.7m-76.1-162.5l20.5 117m-20.5-117l61.8 70.5M1334.4 0l29.3 43.5M1316-1.4L1303.2 59m60.5-15.3L1149.5 96M1414 0l11.5 114m14.5-32.2l-18.5-7.8m18.9 53.3l-16.9-15.6M1414 .4l-50.3 43.1-177.2-42.1L1095 60l54.5 34 42.2 116.3 177.2 29.8"/><path d="M1173 155.5L1021.7 179l127.8-83L1187 1.7 1303.7 59m-282 120l100.3 61.4m34.4 0l35.3-30.1-2.6 30.1m-166.4-63.1l-65.8 63.6m74.3-131.2L1149.5 96M1034 108.7L922.3 40.3 1095 60M772 240.6l44.9-86.9-37.4-40-94 98"/><path d="M826.7 240l35.3-35.3-45.1-51L922.3 40.3 862 204.7l171-96-12.1 70.3L862 204.7l209.8 35.7m-268.5 0l-68.8-25.7-29.2 25.8m12.4-.5L666 194.7m.4 0l12.3 45.7m-12.3-45.7l150.5-41m-37.4-40L490.5 237 397 186.1l-55.5 3.6 55.7 50.4"/><path d="M424.3 240.1l-9.8-15.1L289 240.4 262.5 89.5l453.9 91.6"/><path d="M206 32.5l-176.5 68 170.5 121 6-189 56.5 57-62.5 132 89 18.9"/><path d="M177 240.4l23-18.9-98.5-21.8-72-99.2L14 209.7l22.4 30.7M14 209.7L3.3 240.1"/><path d="M94.9 240l6.6-40.3-82.5 10M0 95.5l29.5 5L0 56"/></g></svg>